<svg xmlns="http://www.w3.org/2000/svg" width="70.018" height="91.026" viewBox="0 0 70.018 91.026">
  <g id="Favicon" transform="translate(-455.241 -760.487)">
    <path id="Path_98" data-name="Path 98" d="M2985.037,812.759c8.294,2.891,17.021-.27,10,9.456s-7.753,10.469-11.887,14.062-.554,4.242-9.281,6.484-10.55,6.673-13.238,0-8.835-6.146,0-11.631,7.105-2.688,13.238-7.916a58.01,58.01,0,0,0,8.659-8.47c2.432-2.7,2.513-1.986,2.513-1.986" transform="translate(-2474)" fill="#e4fdff"/>
    <path id="Icon_ionic-ios-water" data-name="Icon ionic-ios-water" d="M62.764,24.907A97.845,97.845,0,0,0,42.9,3.771a1.871,1.871,0,0,0-2.276-.022c-5.033,3.742-12.275,10.59-19.8,21.115C12.658,36.241,7.034,48.582,6.772,62.257c0,.263-.022.547-.022.81a28.6,28.6,0,0,0,2.385,11.4,30.744,30.744,0,0,0,3.326,5.755C18.7,88.755,29.484,94.4,41.737,94.4c19.342,0,35.031-14.025,35.031-31.333C76.768,49.129,70.86,36.329,62.764,24.907ZM43.947,82.737h-.109A1.918,1.918,0,0,1,43.269,79c9.868-3.107,15.229-8.424,18.9-17.679a1.9,1.9,0,0,1,3.676.678V62.3C65.827,73.591,56.025,82.737,43.947,82.737Z" transform="translate(448.491 757.113)" fill="#90ebf2"/>
  </g>
</svg>
