<svg xmlns="http://www.w3.org/2000/svg" width="592.955" height="439.287" viewBox="0 0 592.955 439.287">
  <g id="surfer" transform="translate(-433.15 -163.531)">
    <path id="Path_61" data-name="Path 61" d="M818.85,725.39a6.6,6.6,0,0,1-1.1,8.11,268.813,268.813,0,0,0,43,7.94c3.72.38,8.06.44,10.49-2.4,1.63-1.92,2-4.77,3.81-6.49A9.12,9.12,0,0,1,879,730.7c4.48-1.25,9.22-1.88,13.27-4.16s7.32-6.91,6.16-11.41c-1.34-5.18-7.37-7.35-12.56-8.7l-16.17-4.22A167.932,167.932,0,0,0,840.24,697c-5.54-.44-14.56-2.81-19.83-.38-6.52,3-3.88,8.86-6.06,14.64-1.07,2.83-6.11,7.17-3.88,10.66C811.74,723.92,816.79,722.11,818.85,725.39Z" transform="translate(-34 -138.81)" fill="#78e6ef" opacity="0.24"/>
    <path id="Path_62" data-name="Path 62" d="M641.18,690.51s-60.11-2.45-42,12,34.59,16.37,42,25.33,9.09,7.6,35.51,10.26,52.55,2.52,53.52-8,3.68-26.81,0-31.57S641.18,690.51,641.18,690.51Z" transform="translate(-34 -138.81)" fill="#78e6ef" opacity="0.24"/>
    <path id="Path_64" data-name="Path 64" d="M708.2,725.28a2.31,2.31,0,0,1-2.3,2.5c-9.65,0-44.51-.75-56.5-10.91-14-11.84,13-7.64,13-7.64,17.57-4.24,20-10.28,20.28-12.68a.248.248,0,0,1,0-.08,3.191,3.191,0,0,0,0-1l.7-.41,2.65-1.57,19.89,6,.41,4.71Z" transform="translate(-34 -138.81)" fill="#ec8c9c"/>
    <path id="Path_66" data-name="Path 66" d="M837.43,682.3l-.34,5.15.17,24.27s-23.08,20,1.37,14l8.87-.89a5.43,5.43,0,0,0,4.41-3.2l17-38.7a4.56,4.56,0,0,0-.52-4.56c-2.79-3.75-8.91-10.77-14.75-9.44C845.75,670.72,837.43,682.3,837.43,682.3Z" transform="translate(-34 -138.81)" fill="#ec8c9c"/>
    <path id="Path_67" data-name="Path 67" d="M1060,576.1c-1.55,30.88,1,29.85-10.3,34l-1.42.7C1035,617.07,929,664.45,742.51,662.06c-197.74-2.55-241.13-17.2-267.95-51.41-.28-.36-.57-.72-.85-1.09,0,0-12.86-23.85-2.57-45.64a13.64,13.64,0,0,1,2.49-5.26c9.49-13.74,54.72-49.24,267.71-42.44,0,0,226.48-11.66,305.22,30h.24C1048.72,546.27,1061.38,547.54,1060,576.1Z" transform="translate(-34 -138.81)" fill="#f5f0a8"/>
    <path id="Path_68" data-name="Path 68" d="M856.47,669.44l-19.38,18-2.67-4.66-2.08-3.64L824.22,665c-13.21-18.35-54.73-39.46-54.73-39.46-8.82-3.64-12.19-7.27-13.47-9.42-1-1.69-2-3.4-3.15-5a67,67,0,0,1-7.34-14.78,119.9,119.9,0,0,1-4.19-14.51c-1-4.29-1.56-8-1.93-10.57-.32-2.3-.45-3.66-.45-3.66l3-10.88,9.38-34.25,35-1.71s.17,19.78.14,37.84v9.88c0,4-.07,7.63-.12,10.66-.09,3.76-.2,6.56-.34,7.84a29.479,29.479,0,0,0-.21,4.7c.25,5.93,2.81,11.7,12,14.68,11.58,3.78,32.51,23.86,34.4,33.12,1.24,6.09,11.38,17.15,18.17,24,1.62,1.63,3,3,4.11,4.06C855.69,668.72,856.47,669.44,856.47,669.44Z" transform="translate(-34 -138.81)" fill="#565388"/>
    <path id="Path_69" data-name="Path 69" d="M856.47,669.44l-19.38,18-2.67-4.66-2.08-3.64L824.22,665c-13.21-18.35-54.73-39.46-54.73-39.46-8.82-3.64-12.19-7.27-13.47-9.42-1-1.69-2-3.4-3.15-5a67,67,0,0,1-7.34-14.78,119.9,119.9,0,0,1-4.19-14.51c-1-4.29-1.56-8-1.93-10.57-.32-2.3-.45-3.66-.45-3.66l3-10.88,9.38-34.25,35-1.71s.17,19.78.14,37.84v9.88c0,4-.07,7.63-.12,10.66-.09,3.76-.2,6.56-.34,7.84a29.479,29.479,0,0,0-.21,4.7c.25,5.93,2.81,11.7,12,14.68,11.58,3.78,32.51,23.86,34.4,33.12,1.24,6.09,11.38,17.15,18.17,24,1.62,1.63,3,3,4.11,4.06C855.69,668.72,856.47,669.44,856.47,669.44Z" transform="translate(-34 -138.81)" opacity="0.1"/>
    <path id="Path_70" data-name="Path 70" d="M786.45,558.53v9.88c-10.08,2.43-33.84,2.79-47,2.78-.32-2.3-.46-3.66-.46-3.66l3-10.88C755.31,559.05,777.1,558.78,786.45,558.53Z" transform="translate(-34 -138.81)" fill="#dfe5ee"/>
    <path id="Path_71" data-name="Path 71" d="M786,586.91a29.4,29.4,0,0,0-.21,4.69c-26.35-2.2-36.47,1.15-40.22,4.67a119.9,119.9,0,0,1-4.19-14.51c10.34-3.16,35-2.93,45-2.69C786.21,582.83,786.1,585.63,786,586.91Z" transform="translate(-34 -138.81)" fill="#dfe5ee"/>
    <path id="Path_72" data-name="Path 72" d="M706.33,704.26h-.49l-23.16-7.72a.254.254,0,0,1,0-.07c.23-.45.44-.91.66-1.37l2.65-1.57,19.89,6Z" transform="translate(-34 -138.81)" opacity="0.1"/>
    <path id="Path_73" data-name="Path 73" d="M781.84,492.55l3.43,4.63s-.47,5.66,1.74,9.1,10.1,31.05-27,38.94c0,0-21.1,36-35.85,50.27l-5.66,10.64s-1.21,12.52,0,18.52,3.77,24.71-5.15,37.23c0,0-7.72,29.68-6.52,41.35h-1l-23.16-7.72h0a40.441,40.441,0,0,0,4.41-17.84l.22-16.3V601.79a64.641,64.641,0,0,1,3.172-20.007l0,.007a35.471,35.471,0,0,0,1.76-10.52c.1-7.46,1-21.82,6-32.9,2.46-5.51,4.89-11,7-16.69,3.52-9.44,8.59-21.82,11.79-24.51l5-9.43,26.65,2.57Z" transform="translate(-34 -138.81)" fill="#565388"/>
    <path id="Path_74" data-name="Path 74" d="M758,371.69s-32.43,20.15-29.69,14.49c1.15-2.38-.45-7.88-2.71-13.47-1.5-3.76-3.31-7.55-4.76-10.44s-2.65-5.09-2.65-5.09,33.46-20.23,32.25-12.51a22.059,22.059,0,0,0,.69,7.51c.47,2,1.08,4.19,1.77,6.3C755.13,365.35,758,371.69,758,371.69Z" transform="translate(-34 -138.81)" fill="#ec8c9c"/>
    <path id="Path_75" data-name="Path 75" d="M474.56,610.65c-.28-.36-.57-.72-.85-1.09,0,0-12.86-23.85-2.57-45.64a13.64,13.64,0,0,1,2.49-5.26Z" transform="translate(-34 -138.81)" fill="#535461"/>
    <path id="Path_76" data-name="Path 76" d="M584.37,590.26a18,18,0,1,1-18-18,12.766,12.766,0,0,1,1.64.07,18,18,0,0,1,16.36,17.93Z" transform="translate(-34 -138.81)" fill="none" stroke="#535461" stroke-miterlimit="10" stroke-width="1"/>
    <path id="Path_77" data-name="Path 77" d="M576.65,599.52l-13.38,4.55-9.58-26.61a18,18,0,0,1,12.67-5.22,12.777,12.777,0,0,1,1.64.07Z" transform="translate(-34 -138.81)" fill="#535461"/>
    <path id="Path_78" data-name="Path 78" d="M748.36,349.79c-4.51,7-9.62,14.1-18.61,14.1a25.069,25.069,0,0,1-8.91-1.62c-1.51-3-2.65-5.09-2.65-5.09s33.46-20.23,32.25-12.51C750.15,346.6,747.7,346.88,748.36,349.79Z" transform="translate(-34 -138.81)" opacity="0.1"/>
    <path id="Path_79" data-name="Path 79" d="M755.14,337.47a25.39,25.39,0,0,1-50.78,0,25,25,0,0,1,1-7.07,25.39,25.39,0,0,1,49.77,7.07Z" transform="translate(-34 -138.81)" fill="#ec8c9c"/>
    <path id="Path_80" data-name="Path 80" d="M758,371.69s-32.43,20.15-29.69,14.49c1.15-2.38-.45-7.88-2.71-13.47,6.42-10.67,20.65-13.49,27.3-14.23C755.13,365.35,758,371.69,758,371.69Z" transform="translate(-34 -138.81)" opacity="0.1"/>
    <path id="Path_81" data-name="Path 81" d="M756.45,361.31s-21-1.18-28.75,14.6a14.74,14.74,0,0,1-3,11.13s-19.21,14.41-13.38,49.58A409.994,409.994,0,0,1,717,499.24s5-4.63,15.79,0,52.49,0,52.49,0-4.46-42.37-.68-50.09,1.52-48.16-3.28-56.57c-3.23-5.65-12.1-13.2-18.59-19.1a19.47,19.47,0,0,1-6.27-12.17Z" transform="translate(-34 -138.81)" opacity="0.1"/>
    <path id="Path_82" data-name="Path 82" d="M756.45,359.25s-24,.34-31.74,16.12c0,0,4.12,4.64,0,9.61,0,0-19.21,14.41-13.38,49.58A410,410,0,0,1,717,497.18s5-4.63,15.79,0,52.49,0,52.49,0-4.46-42.37-.68-50.09,1.52-48.16-3.28-56.57c-3.23-5.64-12.1-13.2-18.59-19.1a19.47,19.47,0,0,1-6.27-12.17Z" transform="translate(-34 -138.81)" fill="#dfe5ee"/>
    <path id="Path_83" data-name="Path 83" d="M754.71,510.57,752,516.23l2.21,10.88a52.93,52.93,0,0,0,11.69,24.17c5.91,6.83,13,11.5,16.64.63,4.5-13.51,1-20.3-1.9-23.37a65.533,65.533,0,0,1-6.77-8.69C771,515.67,767,510.72,762.7,509,754.81,506,754.71,510.57,754.71,510.57Z" transform="translate(-34 -138.81)" fill="#ec8c9c"/>
    <path id="Path_84" data-name="Path 84" d="M739.64,440.22l-.06,8.15L741,463.73a101.073,101.073,0,0,1,6.58,19c3,12,3.37,35.52,3.37,35.52s15.89-5.11,19-3.57c0,0,.92-35-2.34-46s-1.89-25.88-1.89-25.88Z" transform="translate(-34 -138.81)" opacity="0.1"/>
    <path id="Path_85" data-name="Path 85" d="M740.67,438.17,739,448.8l3,12.87a101.073,101.073,0,0,1,6.58,19c3,12,3.37,35.52,3.37,35.52s14.75-4,17.84-2.41c0,0,2.06-36.19-1.2-47.17s-1.89-25.89-1.89-25.89Z" transform="translate(-34 -138.81)" fill="#565388"/>
    <path id="Path_86" data-name="Path 86" d="M755.14,337.47a25.32,25.32,0,0,1-9.55,19.84l-1.28-.43a5.18,5.18,0,0,1-1.7-.83A4.4,4.4,0,0,1,741.4,354c-.93-2.76-1.21-5.72-2.25-8.46s-3.11-5.35-6-5.83a1.35,1.35,0,0,0-.95.11,1.71,1.71,0,0,0-.57,1.07,8.44,8.44,0,0,1-5.07,5.51c-1.51.56-4.19,1-5.63,0-1.25-.87-1.21-2.35-1.51-3.72-.81-3.77-2.66-7.58-6.32-9.29a30.246,30.246,0,0,0-3.84-1.26,18.339,18.339,0,0,1-3.9-1.65,25.39,25.39,0,0,1,49.77,7.07Z" transform="translate(-34 -138.81)" opacity="0.1"/>
    <path id="Path_87" data-name="Path 87" d="M713.11,332.28a29.371,29.371,0,0,0-3.85-1.26,15.7,15.7,0,0,1-7.75-4.82,9.18,9.18,0,0,1-1.78-8.69c1-2.73,3.57-4.77,4.18-7.62a17.7,17.7,0,0,1,.63-3.35c.46-1.05,1.8-1.86,2.75-1.22a8.159,8.159,0,0,1-.75,3.8,11.18,11.18,0,0,0,4-3.69A10.319,10.319,0,0,1,712.3,303a2.24,2.24,0,0,1,2.74-.34,2.21,2.21,0,0,0,1.26,2.58,6.5,6.5,0,0,0,3.1.4,38.78,38.78,0,0,0,8.41-.94c2.66-.7,5.23-2,8-2s5.84,1.93,5.71,4.69c2.83-1,5.93.11,8.73,1.22a26.345,26.345,0,0,1,7.92,4.26c2.26,1.99,3.85,5,3.31,8a2.919,2.919,0,0,0-.05,1.52,3.06,3.06,0,0,0,.93,1.07c2.09,1.93,2.12,5.17,2,8a6,6,0,0,1-.47,2.54c-.41.81-1.18,1.42-1.44,2.29-.6,2,1.85,3.74,2.09,5.85a5.93,5.93,0,0,1-1.27,3.62L756.91,356a6.409,6.409,0,0,1-1.33,1.68c-1.64,1.3-4,.68-6,0l-5.26-1.79a5.331,5.331,0,0,1-1.69-.83,4.5,4.5,0,0,1-1.21-2.08c-.94-2.77-1.21-5.73-2.24-8.47s-3.11-5.35-6-5.82a1.3,1.3,0,0,0-.95.1,1.71,1.71,0,0,0-.57,1.07,8.42,8.42,0,0,1-5.07,5.51c-1.51.56-4.19,1-5.63,0-1.25-.88-1.21-2.36-1.51-3.74C718.62,337.8,716.77,334,713.11,332.28Z" transform="translate(-34 -138.81)" fill="#603456"/>
    <ellipse id="Ellipse_1" data-name="Ellipse 1" cx="21.62" cy="9.26" rx="21.62" ry="9.26" transform="translate(893.67 391.23)" fill="#535461"/>
    <ellipse id="Ellipse_2" data-name="Ellipse 2" cx="21.62" cy="9.26" rx="21.62" ry="9.26" transform="translate(893.67 478.99)" fill="#535461"/>
    <ellipse id="Ellipse_3" data-name="Ellipse 3" cx="21.62" cy="9.26" rx="21.62" ry="9.26" transform="translate(953.89 433.69)" fill="#535461"/>
    <path id="Path_88" data-name="Path 88" d="M1060,576.1c-1.55,30.88,1,29.85-10.3,34l-1.42.7-1.43-64.52C1048.72,546.27,1061.38,547.54,1060,576.1Z" transform="translate(-34 -138.81)" fill="#535461"/>
    <path id="Path_90" data-name="Path 90" d="M737.06,389.24s-17.15-2.54-7.37,38.12c0,0,8.06,20.58,8.23,23.5,0,0,15.27-11.32,27.45-2.74,0,0,2.4-24.88-3.77-36.55C761.6,411.57,757.43,383.18,737.06,389.24Z" transform="translate(-34 -138.81)" opacity="0.1"/>
    <path id="Path_91" data-name="Path 91" d="M738.09,387.18s-17.15-2.54-7.37,38.12c0,0,8.06,20.59,8.23,23.5,0,0,15.27-11.32,27.45-2.74,0,0,2.4-24.88-3.77-36.55C762.63,409.51,758.46,381.12,738.09,387.18Z" transform="translate(-34 -138.81)" fill="#dfe5ee"/>
    <path id="Path_92" data-name="Path 92" d="M737.24,427.19s5.66-3.78,6.52-6.18,5.51,1.89,3.52,3.95S737.24,427.19,737.24,427.19Z" transform="translate(-34 -138.81)" fill="#565388"/>
    <path id="Path_93" data-name="Path 93" d="M854.39,667.47l-20,15.32-2.08-3.64,17.94-15.74C851.9,665,853.32,666.44,854.39,667.47Z" transform="translate(-34 -138.81)" fill="#535461"/>
    <path id="Path_94" data-name="Path 94" d="M768.34,406.41s5.85,23.37,3.45,31.76" transform="translate(-34 -138.81)" opacity="0.1"/>
    <path id="Path_95" data-name="Path 95" d="M803.09,548.64v1.09l20.7-19.31-1.32.21Z" opacity="0.1"/>
    <path id="Path_96" data-name="Path 96" d="M726.67,380.67S752.44,373,758,367" transform="translate(-34 -138.81)" opacity="0.1"/>
  </g>
</svg>
